<svg width="296" height="60" viewBox="0 0 296 60" fill="none" xmlns="http://www.w3.org/2000/svg">
<rect width="296" height="60" rx="8" fill="#4A4AF4"/>
<g clip-path="url(#clip0_3038_1138)">
<path fill-rule="evenodd" clip-rule="evenodd" d="M30.6307 36.061C29.8515 36.061 29.4546 35.6868 29.4546 35.0717C29.4546 33.9246 30.7659 33.5389 33.1577 33.2908C33.1577 34.8193 32.0978 36.061 30.6233 36.061H30.6307ZM31.6597 27.465C29.95 27.465 27.9845 28.2493 26.9173 29.0795L27.8919 31.0869C28.7475 30.3227 30.1308 29.6688 31.3789 29.6688C32.5653 29.6688 33.2209 30.056 33.2209 30.836C33.2209 31.3594 32.7873 31.6246 31.967 31.7293C28.9004 32.1164 26.4968 32.9424 26.4968 35.2466C26.4968 37.0734 27.8302 38.1789 29.9133 38.1789C31.401 38.1789 32.7241 37.373 33.3532 36.3148V37.8921H36.1258V31.2834C36.1258 28.559 34.1868 27.4592 31.6612 27.4592L31.6597 27.465Z" fill="white"/>
<path fill-rule="evenodd" clip-rule="evenodd" d="M59.4868 27.7615V37.8789H62.4534V33.0037C62.4534 30.688 63.8912 30.0069 64.8923 30.0069C65.343 30.0035 65.7845 30.1308 66.1609 30.3726L66.7034 27.6984C66.2831 27.5343 65.833 27.4548 65.3803 27.4647C63.8559 27.4647 62.8974 28.1228 62.2653 29.4621V27.7615H59.4868Z" fill="white"/>
<path fill-rule="evenodd" clip-rule="evenodd" d="M80.4517 27.4651C78.8831 27.4651 77.71 28.3684 77.0999 29.2402C76.534 28.1146 75.3359 27.4651 73.8952 27.4651C72.3281 27.4651 71.2417 28.3139 70.7404 29.2918V27.7619H67.8796V37.8793H70.8492V32.67C70.8492 30.806 71.8532 29.9041 72.7897 29.9041C73.6379 29.9041 74.4171 30.4389 74.4171 31.8198V37.8793H77.3807V32.67C77.3807 30.7788 78.3598 29.9041 79.3403 29.9041C80.1253 29.9041 80.9574 30.4605 80.9574 31.7997V37.8793H83.9211V30.8849C83.9211 28.6122 82.3525 27.4651 80.4576 27.4651" fill="white"/>
<path fill-rule="evenodd" clip-rule="evenodd" d="M52.2676 27.7616H49.5803V26.7335C49.5803 25.3943 50.3639 25.0129 51.0386 25.0129C51.4994 25.0187 51.9523 25.1292 52.3617 25.3355L53.2761 23.2951C53.2761 23.2951 52.3485 22.7043 50.6623 22.7043C48.7674 22.7043 46.6108 23.7468 46.6108 27.0174V27.7616H42.1197V26.7335C42.1197 25.3943 42.9018 25.0129 43.578 25.0129C44.0395 25.0128 44.4939 25.1237 44.9011 25.3355L45.8155 23.2951C45.2701 22.984 44.3924 22.7043 43.2031 22.7043C41.3082 22.7043 39.1516 23.7468 39.1516 27.0174V27.7616H37.4346V29.9927H39.156V37.879H42.1197V29.9927H46.6167V37.879H49.5803V29.9927H52.2676V27.7616Z" fill="white"/>
<path d="M56.9983 27.762H54.0376V37.8751H56.9983V27.762Z" fill="white"/>
<path fill-rule="evenodd" clip-rule="evenodd" d="M54.1465 26.0423H57.0469C58.739 20.8531 64.4796 16.292 71.3067 16.292C79.6096 16.292 86.7851 22.4576 86.7851 32.056C86.8103 34.0261 86.5328 35.9889 85.9618 37.8789H88.777L88.8049 37.7843C89.2793 35.9132 89.5134 33.9919 89.5018 32.0646C89.5018 21.3607 81.5046 13.6565 71.3125 13.6565C63.3065 13.6565 56.1708 19.0765 54.148 26.0452L54.1465 26.0423Z" fill="white"/>
</g>
<path d="M109.006 38H107.304L103.417 28.179V38H101.14V23.878H103.877L108.178 34.734L112.433 23.878H115.101V38H112.801V28.179L109.006 38ZM127.088 32.894C127.088 36.022 125.11 38.23 122.235 38.23C119.36 38.23 117.382 36.022 117.382 32.894C117.382 29.766 119.36 27.558 122.235 27.558C125.11 27.558 127.088 29.766 127.088 32.894ZM124.788 32.894C124.788 30.962 123.891 29.536 122.235 29.536C120.579 29.536 119.682 30.962 119.682 32.894C119.682 34.826 120.579 36.252 122.235 36.252C123.891 36.252 124.788 34.826 124.788 32.894ZM129.236 38V27.788H131.536V28.754C132.088 28.11 133.1 27.558 134.296 27.558C136.619 27.558 137.907 29.099 137.907 31.353V38H135.607V31.744C135.607 30.479 134.986 29.651 133.675 29.651C132.686 29.651 131.789 30.272 131.536 31.284V38H129.236ZM141.152 35.24V29.697H139.542V27.788H141.152V25.051H143.452V27.788H145.752V29.697H143.452V34.987C143.452 35.815 143.912 36.183 144.671 36.183C145.131 36.183 145.66 35.999 145.982 35.769V37.862C145.591 38.092 144.97 38.23 144.257 38.23C142.44 38.23 141.152 37.264 141.152 35.24ZM148.327 38V23.05H150.627V28.754C151.179 28.11 152.191 27.558 153.387 27.558C155.71 27.558 156.998 29.099 156.998 31.353V38H154.698V31.744C154.698 30.479 154.077 29.651 152.766 29.651C151.777 29.651 150.88 30.272 150.627 31.284V38H148.327ZM162.015 23.05V38H159.715V23.05H162.015ZM168.585 41.91H166.354L167.803 38.276L163.847 27.788H166.308L168.976 35.309L171.598 27.788H173.967L168.585 41.91ZM183.173 37.126V41.91H180.873V27.788H183.173V28.662C183.633 28.087 184.645 27.558 185.772 27.558C188.762 27.558 190.51 30.042 190.51 32.894C190.51 35.746 188.762 38.23 185.772 38.23C184.645 38.23 183.633 37.701 183.173 37.126ZM183.173 30.962V34.826C183.564 35.631 184.438 36.183 185.381 36.183C187.152 36.183 188.21 34.78 188.21 32.894C188.21 31.008 187.152 29.605 185.381 29.605C184.438 29.605 183.564 30.157 183.173 30.962ZM200.509 38H198.324V37.425C197.979 37.77 196.944 38.184 195.794 38.184C193.701 38.184 191.976 36.942 191.976 34.849C191.976 32.917 193.701 31.56 195.955 31.56C196.875 31.56 197.91 31.882 198.324 32.181V31.353C198.324 30.318 197.68 29.513 196.369 29.513C195.449 29.513 194.874 29.904 194.621 30.617H192.413C192.712 28.869 194.322 27.558 196.415 27.558C198.991 27.558 200.509 28.984 200.509 31.307V38ZM198.324 35.286V34.435C198.071 33.791 197.151 33.4 196.231 33.4C195.196 33.4 194.115 33.837 194.115 34.849C194.115 35.884 195.196 36.321 196.231 36.321C197.151 36.321 198.071 35.93 198.324 35.286ZM206.723 41.91H204.492L205.941 38.276L201.985 27.788H204.446L207.114 35.309L209.736 27.788H212.105L206.723 41.91ZM221.48 28.915C222.193 28.087 223.136 27.558 224.516 27.558C226.609 27.558 227.828 29.03 227.828 31.353V38H225.528V31.721C225.528 30.456 224.976 29.628 223.849 29.628C223.021 29.628 222.239 30.134 222.032 31.146V38H219.732V31.721C219.732 30.456 219.18 29.628 218.053 29.628C217.225 29.628 216.443 30.134 216.236 31.146V38H213.936V27.788H216.236V28.639C216.719 27.995 217.639 27.558 218.789 27.558C219.939 27.558 220.951 28.133 221.48 28.915ZM236.836 34.826H238.952C238.607 36.85 237.112 38.23 234.651 38.23C231.799 38.23 229.821 36.068 229.821 32.917C229.821 29.858 231.822 27.558 234.605 27.558C237.48 27.558 239.044 29.605 239.044 32.595V33.423H232.075C232.144 35.217 233.179 36.298 234.651 36.298C235.755 36.298 236.583 35.815 236.836 34.826ZM234.628 29.49C233.363 29.49 232.42 30.272 232.144 31.744H236.767C236.744 30.502 236.031 29.49 234.628 29.49ZM241.158 38V27.788H243.458V28.754C244.01 28.11 245.022 27.558 246.218 27.558C248.541 27.558 249.829 29.099 249.829 31.353V38H247.529V31.744C247.529 30.479 246.908 29.651 245.597 29.651C244.608 29.651 243.711 30.272 243.458 31.284V38H241.158ZM253.075 35.24V29.697H251.465V27.788H253.075V25.051H255.375V27.788H257.675V29.697H255.375V34.987C255.375 35.815 255.835 36.183 256.594 36.183C257.054 36.183 257.583 35.999 257.905 35.769V37.862C257.514 38.092 256.893 38.23 256.18 38.23C254.363 38.23 253.075 37.264 253.075 35.24ZM259.425 35.056H261.771C262.024 35.907 262.783 36.344 263.795 36.344C264.853 36.344 265.543 35.93 265.543 35.125C265.543 34.573 265.198 34.274 264.347 34.067L262.231 33.561C260.782 33.216 259.701 32.434 259.701 30.755C259.701 28.915 261.334 27.558 263.565 27.558C265.957 27.558 267.314 28.708 267.659 30.571H265.405C265.198 29.904 264.6 29.444 263.542 29.444C262.737 29.444 261.909 29.812 261.909 30.617C261.909 31.077 262.231 31.376 262.967 31.56L265.129 32.066C266.877 32.48 267.751 33.469 267.751 34.964C267.751 36.988 266.072 38.23 263.772 38.23C261.38 38.23 259.724 37.034 259.425 35.056Z" fill="white"/>
<defs>
<clipPath id="clip0_3038_1138">
<rect width="63" height="34" fill="white" transform="translate(26.5 13)"/>
</clipPath>
</defs>
</svg>
