<svg xmlns="http://www.w3.org/2000/svg" id="Layer_1" viewBox="0 0 8000 2767.0226301"><defs><style>      .st0 {        fill: #e8cd43;      }    </style></defs><rect class="st0" x="999.9257257" y="1978.1039369" width="999.9257257" height="789.9413233"></rect><rect class="st0" x="2999.7771772" y="1978.1039369" width="999.9257257" height="789.9413233"></rect><rect class="st0" y="1188.1626136" width="999.9257257" height="789.9413233"></rect><rect class="st0" x="1999.8514515" y="1188.1626136" width="999.9257257" height="789.9413233"></rect><rect class="st0" x="999.9257257" y="793.1919519" width="999.9257257" height="394.9706617"></rect><rect class="st0" x="2999.7771772" y="793.1919519" width="999.9257257" height="394.9706617"></rect><rect class="st0" y="398.2212903" width="999.9257257" height="394.9706617"></rect><rect class="st0" x="1999.8514515" y="398.2212903" width="999.9257257" height="394.9706617"></rect><rect class="st0" x="999.9257257" y="199.7360337" width="999.9257257" height="197.4853308"></rect><rect class="st0" x="2999.7771772" y="199.7360337" width="999.9257257" height="197.4853308"></rect><rect class="st0" y="2.2507029" width="999.9257257" height="197.4853308"></rect><rect class="st0" x="1999.8514515" y="2.2507029" width="999.9257257" height="197.4853308"></rect><rect class="st0" x="5000.2228228" y="1973.8079914" width="999.9257257" height="789.9412013"></rect><rect class="st0" x="7000.0742743" y="1973.8079914" width="999.9257257" height="789.9412013"></rect><rect class="st0" x="4000.2970971" y="1183.866668" width="999.9257257" height="789.9413233"></rect><rect class="st0" x="6000.1485485" y="1183.866668" width="999.9257257" height="789.9413233"></rect><rect class="st0" x="5000.2228228" y="788.8960064" width="999.9257257" height="394.9706617"></rect><rect class="st0" x="7000.0742743" y="788.8960064" width="999.9257257" height="394.9706617"></rect><rect class="st0" x="4000.2970971" y="393.9253142" width="999.9257257" height="394.9706922"></rect><rect class="st0" x="6000.1485485" y="393.9253142" width="999.9257257" height="394.9706922"></rect><rect class="st0" x="5000.2228228" y="195.4400729" width="999.9257257" height="197.4853461"></rect><rect class="st0" x="7000.0742743" y="195.4400729" width="999.9257257" height="197.4853461"></rect><rect class="st0" x="4000.2970971" y="-2.0452602" width="999.9257257" height="197.4853331"></rect><rect class="st0" x="6000.1485485" y="-2.0452602" width="999.9257257" height="197.4853331"></rect></svg>